<svg width="256" height="106" viewBox="0 0 256 106" fill="none" xmlns="http://www.w3.org/2000/svg">
<path d="M221.959 9.01939C220.959 9.51939 168.834 10.6919 165.459 9.51939C163.279 8.76163 169.459 4.55897 171.459 4.78918C173.459 5.01939 175.459 8.5194 178.459 3.01939C181.459 -2.48061 188.959 1.01939 191.459 2.01939C193.959 3.01939 195.959 3.01939 198.459 3.01939C200.959 3.01939 198.817 3.36195 203.459 1.51939C208.102 -0.323167 210.385 0.0851061 213.959 3.01939C218.989 4.04137 222.959 8.51939 221.959 9.01939Z" fill="#D9D9D9" fill-opacity="0.8"/>
<path d="M73.5979 48.2613H0.0979523C-0.0959441 46.8713 -0.402048 45.7613 3.59795 43.7613C7.59795 41.7613 9.09795 42.2613 13.098 42.2613C17.098 42.2613 17.0979 39.2613 21.598 36.7613C26.098 34.2613 25.872 38.2766 32.5979 35.2613C39.3239 32.246 44.5979 30.2613 46.0979 31.2613C47.598 32.2613 50.0979 35.2613 51.598 36.7613C53.098 38.2613 53.0979 39.2613 59.0979 40.2613C65.098 41.2613 65.5979 40.2613 70.0979 42.2613C74.5979 44.2613 73.5979 48.2613 73.5979 48.2613Z" fill="#D9D9D9" fill-opacity="0.6"/>
<path d="M253.082 105.105H178.082C178.082 105.105 177.082 101.105 182.082 100.105C187.082 99.1046 189.582 100.105 193.082 99.1046C196.582 98.1046 194.582 93.6046 200.082 92.6046C205.582 91.6046 211.582 92.6046 211.582 92.6046C211.582 92.6046 222.582 86.1046 227.082 87.1046C231.582 88.1046 238.582 96.1046 240.582 97.1046C242.582 98.1046 247.582 97.1046 249.582 98.1046C251.582 99.1046 253.582 99.6046 254.582 101.105C255.582 102.605 255.082 105.105 253.082 105.105Z" fill="#D9D9D9" fill-opacity="0.74"/>
</svg>
